<?xml version="1.0" encoding="UTF-8" standalone="no"?>
<!-- Created with Inkscape (http://www.inkscape.org/) -->

<svg
   version="1.1"
   id="svg1"
   width="2121"
   height="1243"
   viewBox="0 0 2121 1243"
   sodipodi:docname="ApartmentBuilding2c.svg"
   inkscape:version="1.3.2 (091e20ef0f, 2023-11-25)"
   xmlns:inkscape="http://www.inkscape.org/namespaces/inkscape"
   xmlns:sodipodi="http://sodipodi.sourceforge.net/DTD/sodipodi-0.dtd"
   xmlns="http://www.w3.org/2000/svg"
   xmlns:svg="http://www.w3.org/2000/svg">
  <defs
     id="defs1" />
  <sodipodi:namedview
     id="namedview1"
     pagecolor="#ffffff"
     bordercolor="#000000"
     borderopacity="0.25"
     inkscape:showpageshadow="2"
     inkscape:pageopacity="0.0"
     inkscape:pagecheckerboard="0"
     inkscape:deskcolor="#d1d1d1"
     showgrid="false"
     inkscape:zoom="0.44130127"
     inkscape:cx="1121.6827"
     inkscape:cy="622.02404"
     inkscape:window-width="1920"
     inkscape:window-height="1011"
     inkscape:window-x="0"
     inkscape:window-y="0"
     inkscape:window-maximized="1"
     inkscape:current-layer="layer1" />
  <g
     inkscape:groupmode="layer"
     id="layer1"
     inkscape:label="Layer 1">
    <path
       id="path2"
       style="fill:#2a7fff"
       d="M 640.31641 309.86328 L 565.9082 404.43164 L 491.5 499.00195 L 433.02539 498.75195 L 374.55273 498.5 L 300.52539 404.30664 C 259.81118 352.50048 226.24467 310.08793 225.93359 310.05664 C 225.62251 310.02534 191.90575 352.52505 151.00586 404.5 L 76.642578 499 L 57.820312 499 L 39 499 L 39 860.83398 C 39 1059.8422 39.299349 1222.9674 39.666016 1223.334 C 40.032681 1223.7007 251.96529 1224 510.62695 1224 L 980.92188 1224 L 981.21094 1215.25 L 981.5 1206.5 L 990.5 1206 L 999.5 1205.5 L 999.52344 1102.5 C 999.53604 1045.8501 999.64853 998.9375 999.77344 998.25 C 999.95208 997.26683 1012.4878 997 1058.5 997 L 1117 997 L 1117 1101.5 L 1117 1206 L 1125.9609 1206 L 1134.9219 1206 L 1135.2109 1214.75 L 1135.5 1223.5 L 1606.75 1223.752 L 2078 1224.002 L 2078 861.52148 L 2078 499.04102 L 2057.3457 498.76953 L 2036.6934 498.5 L 1962.5957 404.2832 C 1921.8428 352.46415 1888.275 310.05226 1888 310.03516 C 1887.725 310.01806 1854.0369 352.52831 1813.1367 404.50195 L 1738.7715 499 L 1680.6367 498.98438 C 1648.662 498.97638 1622.028 498.63845 1621.4512 498.23438 C 1620.8744 497.8303 1587.2079 455.30349 1546.6367 403.73047 C 1506.0657 352.15744 1472.5489 310.16047 1472.1543 310.4043 C 1471.7598 310.64813 1438.1513 353.17651 1397.4688 404.91016 L 1323.5 498.9707 L 1263.5078 498.73633 L 1203.5156 498.5 L 1129.5078 404.31641 C 1088.8036 352.51599 1055.2381 310.10344 1054.918 310.06641 C 1054.598 310.02941 1020.8681 352.52505 979.96289 404.5 L 905.58984 499 L 847.98242 499 L 790.375 499 L 787.83398 496.25 C 786.43725 494.73749 753.6677 453.22495 715.01172 404 C 676.35574 354.77505 643.73441 313.45693 642.52148 312.18164 L 640.31641 309.86328 z M 1884.3184 366.125 C 1891.1406 366.07531 1898.3587 367.08827 1903.5 369.03125 C 1936.8296 381.62706 1950.0283 420.34771 1931.0645 449.90039 C 1926.9769 456.27033 1917.9234 464.67267 1911.2715 468.27148 C 1901.1101 473.769 1886.2933 476.13618 1875.5 473.98438 C 1849.6941 468.83959 1831.0749 446.22712 1831.0156 419.96094 C 1830.9606 395.40316 1848.3842 373.58468 1873 367.39062 C 1876.2739 366.56683 1880.225 366.15481 1884.3184 366.125 z M 223.75977 366.14258 C 227.84499 366.16615 231.77161 366.5721 235 367.38672 C 259.62915 373.60136 277.03987 395.40431 276.98438 419.96094 C 276.91838 449.14317 254.40136 473.03099 225.52734 474.55078 C 220.54317 474.81312 215.036 474.41524 211 473.5 C 195.81107 470.05558 180.84306 458.53764 174.23633 445.20898 C 159.46309 415.40497 173.25126 380.71101 204.5 369.06055 C 209.70067 367.12159 216.95106 366.10328 223.75977 366.14258 z M 638.32031 366.16992 C 667.2891 365.96271 690.88069 387.75306 692.6875 416.98633 C 694.57221 447.47982 671.65225 473.02203 641 474.58984 C 634.57726 474.91836 630.71451 474.54107 625.19141 473.04297 C 615.71824 470.4735 608.96955 466.76094 601.88867 460.22266 C 566.62537 427.6615 587.62994 368.94179 635.5 366.25977 C 636.44512 366.20681 637.38584 366.17661 638.32031 366.16992 z M 1471 366.55078 C 1481.1603 366.50648 1483.3769 366.82271 1490.0254 369.26953 C 1527.9367 383.22184 1538.1147 431.89654 1508.8867 459.46875 C 1498.3715 469.38822 1488.1468 473.81355 1474 474.57031 C 1467.5362 474.91608 1463.7498 474.55064 1458.1914 473.04297 C 1447.7561 470.21255 1441.5289 466.54837 1433.2266 458.35547 C 1419.5187 444.82816 1414.172 426.62064 1418.5078 408.23047 C 1422.6997 390.45125 1435.2498 376.13075 1452.623 369.30273 C 1458.6411 366.93752 1460.9369 366.5947 1471 366.55078 z M 1055 366.55273 C 1065.1746 366.50573 1067.3644 366.81881 1074 369.27148 C 1104.7975 380.65491 1118.6733 415.93066 1103.8809 445.23438 C 1100.0751 452.77377 1089.7722 463.71733 1083.0195 467.39258 C 1069.916 474.52439 1055.1752 476.56464 1042.1914 473.04297 C 1031.8003 470.22452 1025.532 466.55288 1017.3945 458.51758 C 1007.1483 448.4 1002.3458 437.9237 1001.3438 423.5 C 999.69627 399.7873 1014.1294 378.00628 1037.5 368.93555 C 1042.4947 366.99697 1045.4268 366.59691 1055 366.55273 z M 179.01562 549 L 221.50781 549 L 264 549 L 264 611.5 L 264 674 L 270.5 674 L 277 674 L 277 685.5 L 277 697 L 221.5 697 L 166 697 L 166 685.54688 L 166 674.0957 L 172.25 673.79688 L 178.5 673.5 L 178.75781 611.25 L 179.01562 549 z M 601.01562 549 L 643.50781 549 L 686 549 L 686 611.5 L 686 674 L 692.5 674 L 699 674 L 699 685.5 L 699 697 L 643.5 697 L 588 697 L 588 685.54688 L 588 674.0957 L 594.25 673.79688 L 600.5 673.5 L 600.75781 611.25 L 601.01562 549 z M 1017 549 L 1059.4922 549 L 1101.9844 549 L 1102.2422 611.25 L 1102.5 673.5 L 1108.75 673.79688 L 1115 674.0957 L 1115 685.54688 L 1115 697 L 1059.5 697 L 1004 697 L 1004 685.5 L 1004 674 L 1010.5 674 L 1017 674 L 1017 611.5 L 1017 549 z M 1431.0156 549 L 1473.5078 549 L 1516 549 L 1516 611.5 L 1516 674 L 1522.5 674 L 1529 674 L 1529 685.5 L 1529 697 L 1473.5 697 L 1418 697 L 1418 685.54688 L 1418 674.0957 L 1424.25 673.79688 L 1430.5 673.5 L 1430.7578 611.25 L 1431.0156 549 z M 1847 549 L 1889.5 549 L 1932 549 L 1932.0156 568.25 C 1932.0256 578.83749 1932.1366 606.85002 1932.2656 630.5 L 1932.5 673.5 L 1938.75 673.79688 L 1945 674.0957 L 1945 685.54688 L 1945 697 L 1889.5 697 L 1834 697 L 1834 685.5 L 1834 674 L 1840.5 674 L 1847 674 L 1847 611.5 L 1847 549 z M 180.01562 774 L 222.5 774 L 264.98438 774 L 265.24219 836.25 L 265.5 898.5 L 271.75 898.79688 L 278 899.0957 L 278 910.54688 L 278 922 L 222.5 922 L 167 922 L 167 910.54688 L 167 899.0957 L 173.25 898.79688 L 179.5 898.5 L 179.75781 836.25 L 180.01562 774 z M 602.01562 774 L 644.50781 774 L 687 774 L 687.01562 793.25 C 687.02362 803.83749 687.1366 831.85002 687.26562 855.5 L 687.5 898.5 L 693.75 898.79688 L 700 899.0957 L 700 910.54688 L 700 922 L 644.5 922 L 589 922 L 589 910.54688 L 589 899.0957 L 595.25 898.79688 L 601.5 898.5 L 601.75781 836.25 L 602.01562 774 z M 1432 774 L 1474.5 774 L 1517 774 L 1517.0254 792.75 C 1517.0394 803.06249 1517.1517 831.07502 1517.2754 855 L 1517.5 898.5 L 1523.75 898.79688 L 1530 899.0957 L 1530 910.54688 L 1530 922 L 1475.166 922 C 1445.0076 922 1420.0326 921.70065 1419.666 921.33398 C 1419.2993 920.96732 1419 915.79232 1419 909.83398 L 1419 899 L 1425.5 899 L 1432 899 L 1432 836.5 L 1432 774 z M 1018.5 774.5 L 1061 774.5 L 1103.5 774.5 L 1103.5 836.5 L 1103.5 898.5 L 1110 899 L 1116.5 899.5 L 1116.5 910.5 L 1116.5 921.5 L 1061.4258 921.75781 C 1031.1345 921.89992 1006.047 921.71307 1005.6758 921.3418 C 1005.3045 920.97052 1005 915.79232 1005 909.83398 L 1005 899 L 1011.4922 899 L 1017.9844 899 L 1018.2422 836.75 L 1018.5 774.5 z M 1848.5 774.5 L 1891 774.5 L 1933.5 774.5 L 1933.5 836.5 L 1933.5 898.5 L 1940 899 L 1946.5 899.5 L 1946.5 910.5 L 1946.5 921.5 L 1891.2227 921.75781 C 1845.9758 921.96938 1835.8512 921.77588 1835.4336 920.6875 C 1835.153 919.95619 1835.0523 914.89053 1835.2109 909.42969 L 1835.5 899.5 L 1841.7422 899.20312 L 1847.9844 898.9043 L 1848.2422 836.70312 L 1848.5 774.5 z M 1890.9902 999.91016 C 1911.4586 999.90525 1931.9263 1000.3266 1932.7793 1001.1797 C 1933.6744 1002.0748 1933.8047 1017.1654 1933.3164 1063.6797 L 1932.6719 1125 L 1938.7129 1125 C 1942.663 1125 1945.1566 1125.4837 1945.9141 1126.3965 C 1946.6723 1127.3101 1946.9725 1131.3703 1946.7852 1138.1465 L 1946.5 1148.5 L 1891.4258 1148.7578 C 1861.1345 1148.8999 1836.047 1148.7135 1835.6758 1148.3418 C 1834.449 1147.1151 1834.9129 1127.4855 1836.1992 1126.1992 C 1836.8592 1125.5392 1839.7842 1125 1842.6992 1125 L 1848 1125 L 1848 1063.6992 C 1848 1017.3549 1848.292 1002.1064 1849.1992 1001.1992 C 1850.0527 1000.3458 1870.5219 999.91506 1890.9902 999.91016 z M 1460.8105 999.99023 C 1484.8314 999.92681 1516.066 1000.2968 1516.4668 1000.9453 C 1516.7884 1001.4656 1517.0387 1029.5701 1517.0234 1063.3984 L 1516.9961 1124.9043 L 1523.248 1125.2031 L 1529.5 1125.5 L 1529.7812 1137.25 L 1530.0625 1149 L 1475.1973 1149 C 1445.0215 1149 1420.0326 1148.7007 1419.666 1148.334 C 1419.2993 1147.9674 1419 1142.8389 1419 1136.9395 C 1419 1124.8122 1418.8736 1125 1427.082 1125 L 1432 1125 L 1432 1063.1074 C 1432 1007.5916 1432.1632 1001.1518 1433.582 1000.6074 C 1434.5828 1000.2234 1446.398 1000.0283 1460.8105 999.99023 z M 628.79492 999.99609 C 652.81648 999.93062 684.06136 1000.2914 684.45703 1000.9316 C 684.77383 1001.4442 685.02561 1029.5487 685.01562 1063.3848 L 684.99805 1124.9043 L 691.24805 1125.2031 L 697.5 1125.5 L 697.78125 1137.25 L 698.0625 1149 L 643.19922 1149 C 613.02346 1149 588.03268 1148.7007 587.66602 1148.334 C 587.29935 1147.9674 587 1142.8389 587 1136.9395 C 587 1124.8122 586.87367 1125 595.08203 1125 L 600 1125 L 600 1063.1074 C 600 1007.5916 600.16322 1001.1518 601.58203 1000.6074 C 602.57053 1000.2281 614.38198 1000.0354 628.79492 999.99609 z M 206.79102 1000.1562 C 211.68652 1000.1617 217.00001 1000.1844 222.5 1000.2227 L 262.5 1000.5 L 262.75781 1062.7031 L 263.01562 1124.9043 L 269.25781 1125.2031 L 275.5 1125.5 L 275.78125 1137.25 L 276.0625 1149 L 220.53125 1149 L 165 1149 L 165 1137.6074 C 165 1124.7342 164.82961 1125 173.08203 1125 L 178 1125 L 178 1063.0195 L 178 1001.0391 L 180.25 1000.4902 C 181.17812 1000.2645 192.10451 1000.1399 206.79102 1000.1562 z " />
    <path
       id="path3"
       style="display:inline;fill:#cccccc"
       d="M 1838,676.98242 V 684.99023 693 h 52.043 52.041 l -0.291,-7.75 -0.293,-7.75 -51.75,-0.25977 z M 170,677 v 8 8 h 51.5 51.5 v -8 -8 h -51.5 z m 422,0 v 8 8 h 51.5 51.5 v -8 -8 h -51.5 z m 416,0 v 8 8 h 51.5 51.5 v -8 -8 h -51.5 z m 414,0 v 8 8 h 51.5 51.5 v -8 -8 h -51.5 z M 1009,901.98242 V 909.99023 918 h 52.043 52.041 l -0.291,-7.75 -0.293,-7.75 -51.75,-0.25977 z m 414,0 V 909.99023 918 h 52.043 52.041 l -0.291,-7.75 -0.293,-7.75 -51.75,-0.25977 z M 171,902 v 8 8 h 51.5 51.5 v -8 -8 h -51.5 z m 422,0 v 8 8 h 51.5 51.5 v -8 -8 h -51.5 z m 1246.5,0.5 -0.293,7.75 -0.291,7.75 h 52.084 52.084 l -0.291,-7.75 -0.293,-7.75 H 1891 Z M 1423,1128.9824 v 8.0078 8.0098 h 52.043 52.041 l -0.291,-7.75 -0.293,-7.75 -51.75,-0.2598 z m 416,0 v 8.0078 8.0098 h 52.043 52.041 l -0.291,-7.75 -0.293,-7.75 -51.75,-0.2598 z M 169,1129 v 8 8 h 51.5 51.5 v -8 -8 h -51.5 z m 422,0 v 8 8 h 51.5 51.5 v -8 -8 h -51.5 z m 394,81 v 14.5 14.5 h 73 73 v -14.5 -14.5 h -73 z" />
    <path
       id="path4"
       style="display:inline;fill:#e5ff80"
       d="m 639.13867,369.90039 c -13.24693,-0.0599 -26.36641,5.1154 -36.13867,15.0293 -12.76877,12.95383 -17.54889,29.63387 -13.46094,46.97656 6.16792,26.16658 32.15148,43.05802 58.57422,38.07813 19.1359,-3.60656 35.84197,-19.8931 39.78125,-38.78321 2.44089,-11.70484 0.71323,-24.53377 -4.66406,-34.62695 -3.47316,-6.5191 -14.28559,-17.33153 -20.80469,-20.80469 -7.34369,-3.91246 -15.33894,-5.83323 -23.28711,-5.86914 z m 417.02343,0 c -13.2331,-0.0618 -26.3482,5.11074 -36.1777,15.02734 -7.0197,7.08176 -11.0267,14.09103 -13.4532,23.53321 -9.17933,35.7194 24.1867,69.5309 60.2286,61.0332 26.9211,-6.34732 43.7622,-32.70979 38.1347,-59.69531 -2.7755,-13.30926 -13.5169,-27.66185 -25.4687,-34.0293 -7.3401,-3.91052 -15.3238,-5.83203 -23.2637,-5.86914 z m -834.73632,0.10352 c -3.93831,0.0393 -7.77944,0.51354 -11.29492,1.44921 -19.77466,5.26322 -34.53857,21.85308 -37.45313,42.08399 -4.86043,33.73793 25.73804,62.79824 59.43555,56.44727 18.56988,-3.49988 34.46952,-18.46452 39.4336,-37.11524 2.99416,-11.24954 1.26087,-25.82636 -4.31641,-36.29492 -3.47316,-6.5191 -14.28559,-17.33153 -20.80469,-20.80469 -7.19713,-3.83438 -16.3357,-5.852 -25,-5.76562 z m 1665.14842,0 c -8.6643,-0.0864 -17.8029,1.93124 -25,5.76562 -6.5192,3.47316 -17.3315,14.28559 -20.8047,20.80469 -13.2682,24.90445 -2.8568,56.93428 22.4063,68.93164 11.713,5.56245 21.8604,6.75307 33.7304,3.95508 22.5886,-5.3245 39.0159,-26.13287 39.0782,-49.5 0.059,-22.06982 -16.1126,-42.6516 -38.1153,-48.50782 -3.5154,-0.93567 -7.3566,-1.40995 -11.2949,-1.44921 z m -414.4004,0.0781 c -4.4491,-0.0826 -8.8741,0.244 -12.1465,0.99805 -18.2149,4.19723 -34.1064,20.42245 -37.9218,38.71875 -7.5139,36.03121 25.1347,68.06922 60.8007,59.66211 38.4977,-9.07452 52.1631,-56.81305 24.1817,-84.47461 -7.382,-7.29762 -13.9227,-11.18696 -22.6231,-13.45313 -3.3681,-0.87728 -7.8418,-1.3686 -12.291,-1.45117 z M 1851,551.97656 V 568.48828 585 h 39.0254 39.0234 l -0.2734,-16.25 -0.2754,-16.25 -38.75,-0.26172 z M 183,552 V 568.5 585 H 221.5 260 V 568.5 552 h -38.5 z m 422,0 V 568.5 585 H 643.5 682 V 568.5 552 h -38.5 z m 416,0 v 16.5 16.5 h 38.5 38.5 V 568.5 552 h -38.5 z m 414,0 v 16.5 16.5 h 38.5 38.5 V 568.5 552 h -38.5 z m 493,36.95312 -17.25,0.27344 -17.25,0.27344 -0.2617,41.75 -0.2598,41.75 H 1910.4883 1928 V 630.97656 Z M 183,589 v 42 42 h 19 19 v -42 -42 h -19 z m 42,0 v 42 42 h 17.5 17.5 v -42 -42 h -17.5 z m 380,0 v 42 42 h 19 19 v -42 -42 h -19 z m 42,0 v 42 42 h 17.5 17.5 v -42 -42 h -17.5 z m 374,0 v 42 42 h 19 19 v -42 -42 h -19 z m 42,0 v 42 42 h 17.5 17.5 v -42 -42 h -17.5 z m 372,0 v 42 42 h 19 19 v -42 -42 h -19 z m 42,0 v 42 42 h 17.5 17.5 v -42 -42 h -17.5 z m 374,0 v 42 42 h 19 19 v -42 -42 h -19 z M 184,777 V 793.5 810 H 222.5 261 V 793.5 777 h -38.5 z m 422,0 V 793.5 810 H 644.5 683 V 793.5 777 h -38.5 z m 416.5,0.5 -0.2754,16.25 -0.2734,16.25 H 1061 1100.0488 L 1099.7754,793.75 1099.5,777.5 H 1061 Z m 414,0 -0.2754,16.25 -0.2734,16.25 H 1475 1514.0488 L 1513.7754,793.75 1513.5,777.5 H 1475 Z m 416,0 -0.2754,16.25 -0.2734,16.25 H 1891 1930.0488 L 1929.7754,793.75 1929.5,777.5 H 1891 Z M 261,813.95312 243.75,814.22656 226.5,814.5 226.23828,856.25 225.97852,898 H 243.48828 261 v -42.02344 z m 422,0 -17.25,0.27344 L 648.5,814.5 648.23828,856.25 647.97852,898 H 665.48828 683 v -42.02344 z m 830,0 -17.25,0.27344 -17.25,0.27344 -0.2617,41.75 -0.2598,41.75 H 1495.4883 1513 v -42.02344 z m 382,0 V 855.97656 898 h 17.5117 17.5098 l -0.2598,-41.75 -0.2617,-41.75 -17.25,-0.27344 z m -43,0.004 V 855.97852 898 h 19.5117 19.5098 l -0.2598,-41.75 -0.2617,-41.75 -19.25,-0.27148 z M 184,814 v 42 42 h 19 19 v -42 -42 h -19 z m 422,0 v 42 42 h 19 19 v -42 -42 h -19 z m 416,0 v 42 42 h 19 19 v -42 -42 h -19 z m 43,0 v 42 42 h 17 17 v -42 -42 h -17 z m 371,0 v 42 42 h 19 19 v -42 -42 h -19 z m -433,187 v 28.5 28.5 h 55 55 v -28.5 -28.5 h -55 z m 433,2.9766 V 1020.4883 1037 h 39.0254 39.0234 l -0.2734,-16.25 -0.2754,-16.25 -38.75,-0.2617 z M 182,1004 v 16.5 16.5 h 38.5 38.5 v -16.5 -16.5 h -38.5 z m 422,0 v 16.5 16.5 h 38.5 38.5 v -16.5 -16.5 h -38.5 z m 1248.5,0.5 -0.2754,16.25 -0.2734,16.25 H 1891 h 39.0488 l -0.2734,-16.25 -0.2754,-16.25 H 1891 Z m -339.5,36.4531 -17.25,0.2735 -17.25,0.2734 -0.2617,41.75 -0.2598,41.75 H 1495.4883 1513 v -42.0234 z m 339,0 V 1082.9785 1125 h 19.5117 19.5098 l -0.2598,-41.75 -0.2617,-41.75 -19.25,-0.2715 z M 182,1041 v 42 42 h 19 19 v -42 -42 h -19 z m 42,0 v 42 42 h 17.5 17.5 v -42 -42 h -17.5 z m 380,0 v 42 42 h 19 19 v -42 -42 h -19 z m 42,0 v 42 42 h 17.5 17.5 v -42 -42 h -17.5 z m 790,0 v 42 42 h 19 19 v -42 -42 h -19 z m 459,0 v 42 42 h 17.5 17.5 v -42 -42 h -17.5 z m -892,21 v 71.5 71.5 h 27.5 27.5 v -71.5 -71.5 h -27.5 z m 60,0 v 71.5 71.5 h 25 25 v -71.5 -71.5 h -25 z" />
    <path
       style="fill:#ff0066"
       d="m 149.91132,399.53965 c 45.16037,-57.37953 75.62181,-95.25491 76.36022,-94.94535 0.67565,0.28325 34.75346,43.2179 75.72846,95.41033 l 74.5,94.89534 56.56382,0.05 56.56382,0.05 67.0832,-85.25 c 36.89576,-46.8875 70.76198,-89.90289 75.25827,-95.58975 7.64978,-9.67537 8.28854,-10.23705 9.94113,-8.74148 0.97134,0.87904 35.0264,43.88544 75.67791,95.56977 l 73.91185,93.97151 56.1176,0.02 56.1176,0.02 73.28974,-93.12715 c 40.30936,-51.21994 74.26496,-94.2609 75.45686,-95.6466 l 2.1671,-2.51944 1.9256,2.08174 c 1.059,1.14496 35.0005,44.1672 75.4255,95.60498 l 73.5,93.52323 58.0018,0.0416 58.0018,0.0416 63.4982,-80.69444 c 93.1073,-118.32204 86.8888,-110.64122 88.4959,-109.30747 0.7655,0.63528 34.8291,43.64345 75.697,95.57371 l 74.3053,94.41865 56.7044,0.005 56.7045,0.005 75.1915,-95.53467 c 41.3554,-52.54406 75.5724,-95.40656 76.0379,-95.25 0.4654,0.15657 34.4972,43.03467 75.6261,95.28467 l 74.7798,95 39.2279,0.26161 39.2279,0.2616 V 283.51204 72 H 1060.5 4 V 283.5 495 h 35.389781 35.389782 z"
       id="path5" />
    <path
       id="path6"
       style="fill:#a05a2c"
       d="M 905 4 L 905 13 L 905 22 L 932 22 L 959 22 L 959 13 L 959 4 L 932 4 L 905 4 z M 1955 4 L 1955 13 L 1955 22 L 1982 22 L 2009 22 L 2009 13 L 2009 4 L 1982 4 L 1955 4 z M 119 5 L 119 14 L 119 23 L 146 23 L 173 23 L 173 14 L 173 5 L 146 5 L 119 5 z M 379 5 L 379 13.333984 C 379 17.917314 379.29935 21.967319 379.66602 22.333984 C 380.03268 22.700651 392.18269 23 406.66602 23 L 433 23 L 433 14 L 433 5 L 406 5 L 379 5 z M 644 5 L 644 14 L 644 23 L 671 23 L 698 23 L 698 14 L 698 5 L 671 5 L 644 5 z M 1169 5 L 1169 14 L 1169 23 L 1196 23 L 1223 23 L 1223 14 L 1223 5 L 1196 5 L 1169 5 z M 1429 5 L 1429 14 L 1429 23 L 1456 23 L 1483 23 L 1483 14 L 1483 5 L 1456 5 L 1429 5 z M 1694 5 L 1694 14.015625 L 1694 23.033203 L 1720.75 22.765625 L 1747.5 22.5 L 1747.7891 13.75 L 1748.0781 5 L 1721.0391 5 L 1694 5 z M 1967 25.947266 L 1967 46.5 L 1967 67.052734 L 1982.25 66.775391 L 1997.5 66.5 L 1997.5 46.5 L 1997.5 26.5 L 1982.25 26.224609 L 1967 25.947266 z M 917 26 L 917 46.5 L 917 67 L 932.5 67 L 948 67 L 948 46.5 L 948 26 L 932.5 26 L 917 26 z M 131 27 L 131 46.833984 C 131 57.742307 131.31064 66.978611 131.69141 67.359375 C 132.07217 67.740139 138.93467 67.926987 146.94141 67.775391 L 161.5 67.5 L 161.77148 47.25 L 162.04102 27 L 146.52148 27 L 131 27 z M 391 27 L 391 46.833984 C 391 57.742307 391.31064 66.978611 391.69141 67.359375 C 392.07217 67.740139 398.93467 67.926987 406.94141 67.775391 L 421.5 67.5 L 421.77148 47.25 L 422.04102 27 L 406.52148 27 L 391 27 z M 656 27 L 656 47.525391 L 656 68.052734 L 671.25 67.775391 L 686.5 67.5 L 686.77148 47.25 L 687.04102 27 L 671.52148 27 L 656 27 z M 1181 27 L 1181 47.525391 L 1181 68.052734 L 1196.25 67.775391 L 1211.5 67.5 L 1211.7715 47.25 L 1212.041 27 L 1196.5215 27 L 1181 27 z M 1441 27 L 1441 47.525391 L 1441 68.052734 L 1456.25 67.775391 L 1471.5 67.5 L 1471.7715 47.25 L 1472.041 27 L 1456.5215 27 L 1441 27 z M 1705 27 L 1705 46.833984 C 1705 57.742307 1705.2993 66.967319 1705.666 67.333984 C 1706.0326 67.700651 1713.0076 68 1721.166 68 L 1736 68 L 1736 47.5 L 1736 27 L 1720.5 27 L 1705 27 z " />
    <path
       style="fill:#000000"
       d="M 981.67287,1242.3395 C 981.30279,1241.9695 981,1238.5917 981,1234.8333 V 1228 H 509.2 c -365.62222,0 -472.070058,-0.2701 -473,-1.2 C 35.271071,1225.8711 35,1143.5386 35,862.32356 V 499.04718 L 17.75,498.77356 0.5,498.49995 0.24771182,283.74995 -0.00457637,68.999954 H 63.497712 127 v -21 -21 h -4.87756 c -2.94935,0 -5.33462,-0.550733 -6.03375,-1.39313 -0.7653,-0.922136 -1.06026,-5.232704 -0.87244,-12.75 L 115.5,1.4999542 146.27999,1.235459 177.05997,0.97096378 176.77999,13.735459 176.5,26.499954 l -5.25,0.30226 -5.25,0.302259 v 20.947741 20.94774 H 276.5 387 v -21 -21 h -4.87756 c -2.94935,0 -5.33462,-0.550733 -6.03375,-1.39313 -0.7653,-0.922136 -1.06026,-5.232704 -0.87244,-12.75 L 375.5,1.4999542 406.27999,1.235459 437.05997,0.97096378 436.77999,13.735459 436.5,26.499954 l -5.25,0.30226 -5.25,0.302259 v 20.947741 20.94774 H 539 652 V 48.049858 27.099762 l -5.75,-0.299904 -5.75,-0.299904 v -12.5 V 1.4999542 L 671.27999,1.235459 702.05997,0.97096378 701.77999,13.735459 701.5,26.499954 l -5.25,0.30226 -5.25,0.302259 v 20.947741 20.94774 H 802 913 V 47.549858 26.099762 l -5.75,-0.299904 -5.75,-0.299904 v -12.5 -12.49999979 h 30.5 30.5 l 0.27988,12.74999979 0.27987,12.75 H 957.52988 952 v 21.504309 21.50431 l 112.25,-0.25431 112.25,-0.254309 0.2701,-20.699495 0.2702,-20.699496 -5.7702,-0.300504 -5.7701,-0.300505 -0.28,-12.764495 -0.28,-12.76449522 30.78,0.26449522 30.78,0.2644952 0.2832,11.9204578 c 0.3209,13.507762 0.3038,13.540612 -7.0535,13.564229 l -4.7703,0.01531 0.2703,20.75 0.2703,20.75 h 110.5 110.5 l 0.2701,-20.699495 0.2702,-20.699496 -5.7702,-0.300504 -5.7701,-0.300505 -0.28,-12.764495 -0.28,-12.76449522 30.78,0.26449522 30.78,0.2644952 0.2832,11.9204578 c 0.3209,13.507762 0.3038,13.540612 -7.0535,13.564229 l -4.7703,0.01531 0.2703,20.75 0.2703,20.75 h 113 113 l 0.2701,-20.699495 0.2702,-20.699496 -5.7702,-0.300504 -5.7701,-0.300505 -0.28,-12.764495 -0.28,-12.76449522 30.78,0.26449522 30.78,0.2644952 0.2838,11.3568698 c 0.1878,7.517296 -0.1072,11.827864 -0.8725,12.75 -0.7003,0.84384 -3.0873,1.39313 -6.054,1.39313 h -4.8979 l 0.2703,20.75 0.2703,20.75 h 111 111 l 0.2697,-21.199507 0.2698,-21.199507 -5.7698,-0.300493 -5.7697,-0.300493 v -12.5 -12.49999979 h 30.5 30.5 v 12.49999979 12.5 l -5.7697,0.300493 -5.7698,0.300493 0.2698,21.199507 0.2697,21.199507 59.7523,0.257869 59.7523,0.257868 -0.2523,214.742129 -0.2523,214.74213 -19.25,0.27159 -19.25,0.2716 v 363.87141 c 0,330.88075 -0.1434,363.92655 -1.5818,364.47845 -0.87,0.3339 -213.9253,0.607 -473.4562,0.607 h -471.8744 l -0.2938,7.25 -0.2938,7.25 -76.0771,0.2562 c -41.8425,0.1409 -76.37995,-0.047 -76.75003,-0.4167 z M 1131,1224.5 V 1210 h -73 -73 v 14.5 14.5 h 73 73 z m -149.78893,-9.25 0.28893,-8.75 9,-0.5 9,-0.5 0.0229,-103 c 0.0126,-56.65 0.12509,-103.56255 0.25,-104.25005 0.17864,-0.98317 12.7149,-1.25 58.7271,-1.25 H 1117 V 1101.5 1206 h 8.9611 8.961 l 0.289,8.75 0.2889,8.75 471.25,0.2511 471.25,0.251 V 861.52129 499.04053 l -20.6538,-0.27029 -20.6537,-0.27029 -74.0963,-94.21654 c -40.7529,-51.8191 -74.3212,-94.23053 -74.5962,-94.24763 -0.275,-0.0171 -33.9638,42.49284 -74.864,94.46654 l -74.364,94.49763 -58.136,-0.0153 c -31.9748,-0.008 -58.6079,-0.34592 -59.1847,-0.75 -0.5768,-0.40408 -34.2432,-42.93085 -74.8144,-94.50392 -40.5711,-51.57308 -74.0884,-93.56974 -74.483,-93.32591 -0.3945,0.24383 -34.003,42.7709 -74.6856,94.5046 l -73.9683,94.06127 -59.9922,-0.23536 -59.9921,-0.23537 -74.0079,-94.18267 c -40.7043,-51.80047 -74.2697,-94.21297 -74.5898,-94.25 -0.32,-0.037 -34.0498,42.45767 -74.95501,94.43267 l -74.37308,94.5 h -57.60786 -57.60787 l -2.53952,-2.75 c -1.39674,-1.51251 -34.16717,-43.02501 -72.82319,-92.25001 -38.65602,-49.225 -71.27608,-90.54342 -72.48901,-91.81871 l -2.20533,-2.31871 -74.40857,94.56981 -74.40856,94.56982 -58.4741,-0.25111 -58.4741,-0.2511 -74.0259,-94.1931 c -40.71425,-51.80621 -74.28042,-94.21871 -74.5915,-94.25 -0.31108,-0.0313 -34.02918,42.4681 -74.92911,94.4431 l -74.363515,94.5 H 57.820887 39 v 361.83333 c 0,199.00842 0.3,362.13342 0.666667,362.50002 C 40.033333,1223.7 251.96581,1224 510.62773,1224 h 470.2944 z M 165,1137.607 C 165,1124.7338 164.82936,1125 173.08179,1125 H 178 v -61.9809 -61.981 l 2.25,-0.5472 c 1.2375,-0.301 20.25,-0.422 42.25,-0.2691 l 40,0.2782 0.25755,62.2025 0.25756,62.2025 6.24244,0.2975 6.24245,0.2975 0.28174,11.75 0.28173,11.75 H 220.53174 165 Z M 272,1137 v -8 H 220.5 169 v 8 8 h 51.5 51.5 z m -52,-54 v -42 h -19 -19 v 42 42 h 19 19 z m 39,0 v -42 H 241.5 224 v 42 42 h 17.5 17.5 z m 0,-62.5 V 1004 H 220.5 182 v 16.5 16.5 h 38.5 38.5 z m 328.66667,127.8333 C 587.3,1147.9667 587,1142.8398 587,1136.9403 587,1124.813 586.87342,1125 595.08179,1125 H 600 v -61.893 c 0,-55.5159 0.16298,-61.9556 1.58179,-62.5 2.63601,-1.01159 82.24309,-0.69942 82.87617,0.325 0.3168,0.5126 0.56782,28.6161 0.55783,62.4522 l -0.0182,61.5203 6.25119,0.2978 6.25118,0.2977 0.28174,11.75 0.28173,11.75 H 643.1984 c -30.17579,0 -55.16507,-0.3 -55.53173,-0.6667 z M 694,1137 v -8 H 642.5 591 v 8 8 h 51.5 51.5 z m -52,-54 v -42 h -19 -19 v 42 42 h 19 19 z m 39,0 v -42 H 663.5 646 v 42 42 h 17.5 17.5 z m 0,-62.5 V 1004 H 642.5 604 v 16.5 16.5 h 38.5 38.5 z m 738.6667,127.8333 C 1419.3,1147.9667 1419,1142.8398 1419,1136.9403 1419,1124.813 1418.8734,1125 1427.0818,1125 H 1432 v -61.893 c 0,-55.5159 0.163,-61.9556 1.5818,-62.5 2.6687,-1.02413 82.2436,-0.69851 82.8849,0.3392 0.3216,0.5203 0.5723,28.6238 0.557,62.4522 l -0.028,61.5061 6.252,0.2977 6.2521,0.2978 0.2817,11.75 0.2818,11.75 h -54.8651 c -30.1758,0 -55.1651,-0.3 -55.5317,-0.6667 z m 107.1254,-11.0833 -0.2921,-7.75 -51.75,-0.259 -51.75,-0.259 v 8.009 8.009 h 52.0421 52.042 z M 1474,1083 v -42 h -19 -19 v 42 42 h 19 19 z m 39,-0.024 v -42.0236 l -17.25,0.2736 -17.25,0.2736 -0.261,41.75 -0.2609,41.75 H 1495.489 1513 Z m 0.7748,-62.2264 -0.2748,-16.25 -38.75,-0.2617 -38.75,-0.2618 V 1020.4883 1037 h 39.0248 39.0247 z m 321.9003,127.5917 c -1.2268,-1.2267 -0.7614,-20.8554 0.5249,-22.1417 0.66,-0.66 3.585,-1.2 6.5,-1.2 h 5.3 v -61.3 c 0,-46.3444 0.2928,-61.5928 1.2,-62.5 1.7069,-1.70693 81.8739,-1.72618 83.5799,-0.02 0.8951,0.8951 1.0246,15.9857 0.5363,62.5 L 1932.6726,1125 h 6.0412 c 3.9501,0 6.4424,0.4832 7.1999,1.396 0.7582,0.9136 1.0597,4.9738 0.8724,11.75 l -0.2861,10.354 -55.0749,0.2584 c -30.2913,0.1421 -55.3788,-0.045 -55.75,-0.4167 z m 107.117,-11.0917 -0.2921,-7.75 -51.75,-0.259 -51.75,-0.259 v 8.009 8.009 h 52.0421 52.042 z m -52.0311,-54 -0.261,-41.75 -19.25,-0.2716 -19.25,-0.2716 v 42.022 V 1125 h 19.511 19.5109 z M 1930,1083 v -42 h -17.5 -17.5 v 42 42 h 17.5 17.5 z m -0.2252,-62.25 -0.2748,-16.25 h -38.5 -38.5 l -0.2748,16.25 -0.2747,16.25 H 1891 1930.0495 Z M 167,910.54767 v -11.45229 l 6.25,-0.29771 6.25,-0.29772 0.25757,-62.25 0.25757,-62.25 H 222.5 264.98486 l 0.25757,62.25 0.25757,62.25 6.25,0.29772 6.25,0.29771 v 11.45229 11.45228 H 222.5 167 Z m 107,-0.54772 v -8 H 222.5 171 v 8 8 h 51.5 51.5 z m -52,-54 v -42 h -19 -19 v 42 42 h 19 19 z m 39,-0.0236 v -42.02363 l -17.25,0.27362 -17.25,0.27361 -0.26097,41.75 -0.26097,41.75 H 243.48903 261 Z m 0,-62.4764 v -16.5 H 222.5 184 v 16.5 16.5 h 38.5 38.5 z m 328,117.04772 v -11.45229 l 6.25,-0.29771 6.25,-0.29772 0.25757,-62.25 0.25757,-62.25 H 644.50757 687 l 0.0154,19.25 c 0.008,10.5875 0.12097,38.6 0.25,62.25 l 0.23459,43 6.25,0.29772 6.25,0.29771 v 11.45229 11.45228 H 644.5 589 Z m 107,-0.54772 v -8 H 644.5 593 v 8 8 h 51.5 51.5 z m -52,-54 v -42 h -19 -19 v 42 42 h 19 19 z m 39,-0.0236 v -42.02363 l -17.25,0.27362 -17.25,0.27361 -0.26097,41.75 -0.26097,41.75 H 665.48903 683 Z m 0,-62.4764 v -16.5 H 644.5 606 v 16.5 16.5 h 38.5 38.5 z m 322.6751,127.84172 C 1005.3038,920.97039 1005,915.79162 1005,909.83328 v -10.83333 h 6.4924 6.4925 l 0.2575,-62.25 0.2576,-62.25 h 42.5 42.5 v 62 62 l 6.5,0.5 6.5,0.5 v 11 11 l -55.0749,0.25839 c -30.2913,0.14211 -55.3788,-0.0454 -55.75,-0.41667 z m 107.117,-11.09172 -0.2921,-7.75 -51.75,-0.259 -51.75,-0.259 v 8.009 8.009 h 52.0421 52.042 z M 1060,855.99995 v -42 h -19 -19 v 42 42 h 19 19 z m 39,0 v -42 h -17 -17 v 42 42 h 17 17 z m 0.7748,-62.25 -0.2748,-16.25 h -38.5 -38.5 l -0.2748,16.25 -0.2747,16.25 H 1061 h 39.0495 z m 319.8919,127.58333 C 1419.3,920.96662 1419,915.79162 1419,909.83328 v -10.83333 h 6.5 6.5 v -62.5 -62.5 h 42.5 42.5 l 0.025,18.75 c 0.014,10.3125 0.1263,38.325 0.25,62.25 l 0.225,43.5 6.25,0.29772 6.25,0.29771 v 11.45229 11.45228 h -54.8333 c -30.1584,0 -55.1334,-0.3 -55.5,-0.66667 z m 107.1254,-11.08333 -0.2921,-7.75 -51.75,-0.259 -51.75,-0.259 v 8.009 8.009 h 52.0421 52.042 z M 1474,855.99995 v -42 h -19 -19 v 42 42 h 19 19 z m 39,-0.0236 v -42.02362 l -17.25,0.27362 -17.25,0.27361 -0.261,41.75 -0.2609,41.75 H 1495.489 1513 Z m 0.7748,-62.2264 -0.2748,-16.25 h -38.5 -38.5 l -0.2748,16.25 -0.2747,16.25 H 1475 h 39.0495 z m 321.6587,126.9373 c -0.2806,-0.73131 -0.3805,-5.79763 -0.2219,-11.25848 l 0.2884,-9.92882 6.2424,-0.29752 6.2425,-0.29752 0.2575,-62.20248 0.2576,-62.20248 h 42.5 42.5 v 62 62 l 6.5,0.5 6.5,0.5 v 11 11 l -55.2781,0.25848 c -45.2469,0.21157 -55.3708,0.0172 -55.7884,-1.07118 z m 107.3586,-10.4373 -0.2921,-7.75 h -51.5 -51.5 l -0.2921,7.75 -0.292,7.75 H 1891 h 52.0841 z m -52.0311,-54 -0.261,-41.75 -19.25,-0.27159 -19.25,-0.2716 v 42.0216 42.02159 h 19.511 19.5109 z m 39,0 -0.261,-41.75 -17.25,-0.27361 -17.25,-0.27362 v 42.02362 42.02361 h 17.511 17.5109 z m 0.014,-62.5 -0.2748,-16.25 h -38.5 -38.5 l -0.2748,16.25 -0.2747,16.25 H 1891 1930.0495 Z M 166,685.54767 v -11.45229 l 6.25,-0.29771 6.25,-0.29772 0.25757,-62.25 0.25757,-62.25 H 221.50757 264 v 62.5 62.5 h 6.5 6.5 v 11.5 11.5 H 221.5 166 Z m 107,-0.54772 v -8 H 221.5 170 v 8 8 h 51.5 51.5 z m -52,-54 v -42 h -19 -19 v 42 42 h 19 19 z m 39,0 v -42 H 242.5 225 v 42 42 h 17.5 17.5 z m 0,-62.5 v -16.5 H 221.5 183 v 16.5 16.5 h 38.5 38.5 z m 328,117.04772 v -11.45229 l 6.25,-0.29771 6.25,-0.29772 0.25757,-62.25 0.25757,-62.25 H 643.50757 686 v 62.5 62.5 h 6.5 6.5 v 11.5 11.5 H 643.5 588 Z m 107,-0.54772 v -8 H 643.5 592 v 8 8 h 51.5 51.5 z m -52,-54 v -42 h -19 -19 v 42 42 h 19 19 z m 39,0 v -42 H 664.5 647 v 42 42 h 17.5 17.5 z m 0,-62.5 v -16.5 H 643.5 605 v 16.5 16.5 h 38.5 38.5 z m 322,117 v -11.5 h 6.5 6.5 v -62.5 -62.5 h 42.4924 42.4925 l 0.2575,62.25 0.2576,62.25 6.25,0.29772 6.25,0.29771 v 11.45229 11.45228 h -55.5 -55.5 z m 107,-0.5 v -8 h -51.5 -51.5 v 8 8 h 51.5 51.5 z m -52,-54 v -42 h -19 -19 v 42 42 h 19 19 z m 39,0 v -42 h -17.5 -17.5 v 42 42 h 17.5 17.5 z m 0,-62.5 v -16.5 h -38.5 -38.5 v 16.5 16.5 h 38.5 38.5 z m 320,117.04772 v -11.45229 l 6.25,-0.29771 6.25,-0.29772 0.2576,-62.25 0.2575,-62.25 H 1473.5076 1516 v 62.5 62.5 h 6.5 6.5 v 11.5 11.5 h -55.5 -55.5 z m 107,-0.54772 v -8 h -51.5 -51.5 v 8 8 h 51.5 51.5 z m -52,-54 v -42 h -19 -19 v 42 42 h 19 19 z m 39,0 v -42 h -17.5 -17.5 v 42 42 h 17.5 17.5 z m 0,-62.5 v -16.5 h -38.5 -38.5 v 16.5 16.5 h 38.5 38.5 z m 322,117 v -11.5 h 6.5 6.5 v -62.5 -62.5 h 42.5 42.5 l 0.015,19.25 c 0.01,10.5875 0.121,38.6 0.25,62.25 l 0.2346,43 6.25,0.29772 6.25,0.29771 v 11.45229 11.45228 h -55.5 -55.5 z m 107.7921,-0.25 -0.2921,-7.75 -51.75,-0.259 -51.75,-0.259 v 8.009 8.009 h 52.0421 52.042 z M 1889,630.99995 v -42 h -19 -19 v 42 42 h 19 19 z m 39,-0.0236 v -42.02362 l -17.25,0.27362 -17.25,0.27361 -0.261,41.75 -0.2609,41.75 H 1910.489 1928 Z m 0.7748,-62.2264 -0.2748,-16.25 -38.75,-0.26174 -38.75,-0.26175 v 16.51175 16.51174 h 39.0248 39.0247 z M 211,473.49977 c -15.18895,-3.44442 -30.15672,-14.96301 -36.76346,-28.29168 -14.77325,-29.80404 -0.98531,-64.49625 30.26346,-76.14672 8.32108,-3.10234 21.89094,-3.84778 30.5,-1.67546 24.62917,6.21465 42.04072,28.01749 41.98522,52.57414 -0.066,29.18226 -22.58411,53.07144 -51.45816,54.59123 C 220.54288,474.81362 215.036,474.41501 211,473.49977 Z m 21.11351,-3.51501 c 18.56992,-3.49988 34.46965,-18.46501 39.43373,-37.11577 2.99418,-11.24956 1.26053,-25.8256 -4.31677,-36.29418 -3.47316,-6.51912 -14.28621,-17.33217 -20.80533,-20.80533 -10.46858,-5.5773 -25.04462,-7.31095 -36.29418,-4.31677 -19.7747,5.26322 -34.53953,21.85333 -37.45409,42.08428 -4.86045,33.73799 25.73907,62.79876 59.43664,56.44777 z m 393.07709,3.05793 c -9.47318,-2.56947 -16.22107,-6.28204 -23.30196,-12.82033 -35.26334,-32.56119 -14.25875,-91.28122 33.61136,-93.96325 30.24379,-1.69448 55.32157,20.55049 57.18667,50.7268 1.88471,30.49352 -21.03439,56.03676 -51.68667,57.60458 -6.42275,0.32852 -10.28629,-0.0497 -15.8094,-1.5478 z m 22.92291,-3.05793 c 19.13594,-3.60656 35.84211,-19.89388 39.78141,-38.78403 2.44089,-11.70486 0.71286,-24.53272 -4.66445,-34.62592 -3.47316,-6.51912 -14.28621,-17.33217 -20.80533,-20.80533 -19.58322,-10.43326 -43.7895,-6.70185 -59.42514,9.16042 -12.76879,12.95387 -17.54819,29.63425 -13.46022,46.97698 6.16792,26.16664 32.15093,43.05779 58.57373,38.07788 z m 394.07709,3.05793 c -10.3911,-2.81845 -16.6594,-6.49033 -24.7969,-14.52564 -10.2462,-10.11759 -15.0477,-20.59339 -16.0498,-35.0171 -1.64748,-23.71272 12.7855,-45.49434 36.1561,-54.56508 4.9947,-1.93858 7.9268,-2.33766 17.5,-2.38184 10.1746,-0.047 12.3644,0.26641 19,2.71909 30.7975,11.38344 44.6738,46.65914 29.8813,75.96288 -3.8058,7.5394 -14.1083,18.48213 -20.861,22.15738 -13.1035,7.13182 -27.8459,9.17198 -40.8297,5.65031 z m 24.5697,-3.54831 c 26.9213,-6.34734 43.7621,-32.70963 38.1346,-59.69521 -2.7755,-13.30928 -13.518,-27.66222 -25.4698,-34.02969 -19.5735,-10.4281 -43.7131,-6.70913 -59.4404,9.15747 -7.0197,7.08176 -11.0265,14.0909 -13.453,23.5331 -9.17945,35.71948 24.1867,69.53205 60.2286,61.03433 z m 391.4303,3.54831 c -10.4353,-2.83042 -16.6623,-6.49382 -24.9646,-14.68673 -13.7079,-13.52732 -19.0542,-31.73498 -14.7184,-50.12517 4.1919,-17.77924 16.7417,-32.09948 34.115,-38.9275 6.0181,-2.36522 8.3143,-2.70923 18.3774,-2.75315 10.1603,-0.0443 12.3766,0.27243 19.0251,2.71925 37.9113,13.95232 48.0896,62.6264 18.8616,90.19864 -10.5152,9.91948 -20.7399,14.34577 -34.8867,15.10253 -6.4638,0.34577 -10.251,-0.0202 -15.8094,-1.52787 z m 24.7163,-3.58252 c 38.4977,-9.07454 52.1632,-56.81198 24.1818,-84.4736 -7.382,-7.29764 -13.9233,-11.18754 -22.6237,-13.45371 -6.7362,-1.75457 -17.8924,-1.9616 -24.4372,-0.4535 -18.2151,4.19725 -34.1073,20.42347 -37.9227,38.71981 -7.5139,36.03129 25.1356,68.06813 60.8018,59.661 z m 392.5931,4.52319 c -25.8059,-5.14479 -44.4259,-27.7571 -44.4852,-54.02331 -0.055,-24.5578 17.3694,-46.37554 41.9852,-52.5696 8.7303,-2.1968 22.2739,-1.46837 30.5,1.6404 33.3296,12.59582 46.5274,51.31751 27.5635,80.87022 -4.0876,6.36995 -13.1392,14.77191 -19.7911,18.37073 -10.1614,5.49752 -24.9791,7.86337 -35.7724,5.71156 z m 21.4069,-4.52319 c 22.5886,-5.3245 39.016,-26.13293 39.0783,-49.50012 0.059,-22.06986 -16.1135,-42.65112 -38.1162,-48.50734 -11.2495,-2.99418 -25.8256,-1.26053 -36.2941,4.31677 -6.5192,3.47316 -17.3322,14.28621 -20.8054,20.80533 -13.2682,24.90451 -2.8572,56.93391 22.4059,68.93129 11.713,5.56247 21.8613,6.75208 33.7315,3.95407 z M 1058,1133.5 V 1062 h -27.5 -27.5 v 71.5 71.5 h 27.5 27.5 z m 55,0 V 1062 h -25 -25 v 71.5 71.5 h 25 25 z m 0,-104 V 1001 h -55 -55 v 28.5 28.5 h 55 55 z M 149.91132,399.5396 c 45.16037,-57.37953 75.62181,-95.25491 76.36022,-94.94535 0.67565,0.28325 34.75346,43.2179 75.72846,95.41033 l 74.5,94.89534 56.56382,0.05 56.56382,0.05 67.0832,-85.25 c 36.89576,-46.8875 70.76198,-89.90289 75.25827,-95.58975 7.64978,-9.67537 8.28854,-10.23705 9.94113,-8.74148 0.97134,0.87904 35.0264,43.88544 75.67791,95.56977 l 73.91185,93.97151 56.1176,0.02 56.1176,0.02 73.28974,-93.12715 c 40.30936,-51.21994 74.26496,-94.2609 75.45686,-95.6466 l 2.1671,-2.51944 1.9256,2.08174 c 1.059,1.14496 35.0005,44.1672 75.4255,95.60498 l 73.5,93.52323 58.0018,0.0416 58.0018,0.0416 63.4982,-80.69444 c 93.1073,-118.32204 86.8888,-110.64122 88.4959,-109.30747 0.7655,0.63528 34.8291,43.64345 75.697,95.57371 l 74.3053,94.41865 56.7044,0.005 56.7045,0.005 75.1915,-95.53467 c 41.3554,-52.54406 75.5724,-95.40656 76.0379,-95.25 0.4654,0.15657 34.4972,43.03467 75.6261,95.28467 l 74.7798,95 39.2279,0.26161 39.2279,0.2616 V 283.51199 71.999954 H 1060.5 4 v 211.499996 211.5 h 35.389781 35.389782 z m 11.85939,-352.289646 0.2707,-20.25 H 146.52071 131 v 19.833333 c 0,10.908334 0.31153,20.144868 0.6923,20.525632 0.38076,0.380764 7.24326,0.568264 15.25,0.416667 L 161.5,67.499954 Z m 260,0 0.2707,-20.25 H 406.52071 391 v 19.833333 c 0,10.908334 0.31153,20.144868 0.6923,20.525632 0.38076,0.380764 7.24326,0.568264 15.25,0.416667 L 421.5,67.499954 Z m 265,0 0.2707,-20.25 H 671.52071 656 V 47.526 68.052046 L 671.25,67.776 686.5,67.499954 Z m 524.99999,0 0.2707,-20.25 H 1196.5207 1181 V 47.526 68.052046 l 15.25,-0.276046 15.25,-0.276046 z m 260,0 0.2707,-20.25 H 1456.5207 1441 V 47.526 68.052046 l 15.25,-0.276046 15.25,-0.276046 z m 264.2293,0.25 v -20.5 h -15.5 -15.5 v 19.833333 c 0,10.908334 0.3,20.133334 0.6667,20.5 0.3666,0.366667 7.3416,0.666667 15.5,0.666667 H 1736 Z m -788,-1 v -20.5 H 932.5 917 v 20.5 20.5 h 15.5 15.5 z m 1049.5,0 v -20 L 1982.25,26.223908 1967,25.947862 V 46.499954 67.052046 L 1982.25,66.776 1997.5,66.499954 Z M 173,13.999954 V 4.9999542 h -27 -27 v 8.9999998 9 h 27 27 z m 260,0 V 4.9999542 h -27 -27 v 8.3333328 c 0,4.583334 0.3,8.633334 0.66667,9 0.36666,0.366667 12.51666,0.666667 27,0.666667 H 433 Z m 265,0 V 4.9999542 h -27 -27 v 8.9999998 9 h 27 27 z m 525,0 V 4.9999542 h -27 -27 v 8.9999998 9 h 27 27 z m 260,0 V 4.9999542 h -27 -27 v 8.9999998 9 h 27 27 z m 264.7889,-0.25 0.289,-8.7499998 H 1721.0389 1694 v 9.0163328 9.016334 l 26.75,-0.266334 26.75,-0.266333 z M 959,12.999954 V 3.9999542 h -27 -27 v 8.9999998 9 h 27 27 z m 1050,0 V 3.9999542 h -27 -27 v 8.9999998 9 h 27 27 z"
       id="path1" />
  </g>
</svg>
